<svg width="18" height="18" fill="none" xmlns="http://www.w3.org/2000/svg"><g clip-path="url(#a)"><path d="M8.998 5.999A3.008 3.008 0 0 0 5.996 9a3.008 3.008 0 0 0 3.002 3.001 3.008 3.008 0 0 0 3-3.001 3.008 3.008 0 0 0-3-3.001ZM17.999 9c0-1.243.011-2.474-.058-3.715-.07-1.441-.4-2.72-1.453-3.774C15.432.455 14.156.13 12.715.06 11.472-.01 10.24.001 9 .001 7.757 0 6.525-.011 5.285.059 3.844.13 2.565.458 1.51 1.511.455 2.567.13 3.844.06 5.285-.01 6.528.001 7.759.001 9c0 1.24-.012 2.474.058 3.715.07 1.441.399 2.72 1.452 3.774 1.056 1.055 2.333 1.382 3.774 1.452 1.243.07 2.474.058 3.715.058 1.243 0 2.474.012 3.715-.058 1.44-.07 2.72-.399 3.773-1.452 1.056-1.056 1.383-2.333 1.453-3.774.072-1.24.058-2.472.058-3.715Zm-9.001 4.618A4.611 4.611 0 0 1 4.38 9a4.611 4.611 0 0 1 4.618-4.618A4.611 4.611 0 0 1 13.615 9a4.611 4.611 0 0 1-4.617 4.618Zm4.807-8.347a1.077 1.077 0 0 1-1.079-1.078c0-.597.482-1.078 1.079-1.078a1.077 1.077 0 0 1 .763 1.841 1.078 1.078 0 0 1-.763.315Z" fill="#1C3516"/></g><defs><clipPath id="a"><path fill="#fff" d="M0 0h18v18H0z"/></clipPath></defs></svg>