<svg width="18" height="18" fill="none" xmlns="http://www.w3.org/2000/svg"><path fill-rule="evenodd" clip-rule="evenodd" d="M13.117.464a18.508 18.508 0 0 0-8.235 0L4.59.53a4.202 4.202 0 0 0-2.023 1.116 4.334 4.334 0 0 0-1.152 2.031 17.452 17.452 0 0 0 0 8.42 4.336 4.336 0 0 0 1.076 1.956 4.21 4.21 0 0 0 1.892 1.14l.401 2.44a.444.444 0 0 0 .282.342.423.423 0 0 0 .43-.087L7.85 15.74c1.766.11 3.54-.034 5.267-.428l.293-.066a4.203 4.203 0 0 0 2.023-1.116 4.334 4.334 0 0 0 1.152-2.031 17.454 17.454 0 0 0 0-8.42 4.334 4.334 0 0 0-1.152-2.033A4.203 4.203 0 0 0 13.409.531l-.292-.067ZM5.61 3.606a.697.697 0 0 0-.463.093h-.012a3.556 3.556 0 0 0-.863.724c-.207.243-.319.49-.348.727a1.02 1.02 0 0 0 .035.418l.016.008c.233.698.536 1.369.907 2a11.75 11.75 0 0 0 1.749 2.44l.02.03.033.024.02.024.024.021c.721.7 1.527 1.302 2.398 1.794.995.553 1.6.814 1.962.923v.005a.978.978 0 0 0 .3.049c.309-.024.601-.152.83-.364.28-.254.518-.552.702-.883v-.006c.174-.334.115-.65-.135-.863a10.459 10.459 0 0 0-1.621-1.187c-.386-.214-.778-.084-.937.132l-.339.436c-.174.216-.489.187-.489.187l-.009.005C7.037 9.73 6.41 7.299 6.41 7.299s-.03-.33.188-.5l.424-.348c.204-.168.345-.568.127-.962a10.38 10.38 0 0 0-1.16-1.653.642.642 0 0 0-.38-.23h.002ZM9.586 2.55a.427.427 0 0 0-.305.13.444.444 0 0 0 0 .62c.081.083.19.13.305.13 1.09 0 1.995.363 2.711 1.059a3.906 3.906 0 0 1 1.095 2.879.447.447 0 0 0 .114.316.428.428 0 0 0 .61.026.444.444 0 0 0 .138-.305 4.798 4.798 0 0 0-1.348-3.538l-.009-.01c-.889-.865-2.013-1.307-3.311-1.307Zm-.03 1.446a.427.427 0 0 0-.304.129.444.444 0 0 0 0 .621c.08.083.19.129.305.129h.014c.786.057 1.359.324 1.76.763.41.452.623 1.014.607 1.709-.003.116.04.229.119.313a.427.427 0 0 0 .61.015.444.444 0 0 0 .133-.308c.02-.912-.268-1.699-.838-2.327v-.001c-.583-.639-1.384-.976-2.348-1.042L9.6 3.994h-.043ZM9.54 5.467a.423.423 0 0 0-.32.107.439.439 0 0 0-.148.309.448.448 0 0 0 .116.322.431.431 0 0 0 .308.14c.36.02.59.13.735.279.145.15.254.39.274.765a.445.445 0 0 0 .137.313.43.43 0 0 0 .316.117.424.424 0 0 0 .303-.15.442.442 0 0 0 .104-.327c-.028-.528-.19-.994-.522-1.336-.333-.343-.787-.51-1.303-.539Z" fill="#1C3516"/></svg>