<svg width="18" height="18" fill="none" xmlns="http://www.w3.org/2000/svg"><path d="M9 0a9 9 0 0 1 9 9 9 9 0 0 1-9 9 8.956 8.956 0 0 1-4.527-1.22L.003 18l1.217-4.471A8.955 8.955 0 0 1 0 8.999a9 9 0 0 1 9-9ZM5.933 4.77l-.18.007a.9.9 0 0 0-.335.09 1.17 1.17 0 0 0-.265.205c-.108.102-.169.19-.234.276a2.457 2.457 0 0 0-.51 1.51c.002.44.117.87.297 1.272.368.811.974 1.67 1.773 2.467.193.192.382.385.585.564a8.507 8.507 0 0 0 3.456 1.841l.511.079c.167.008.333-.004.5-.012.263-.014.519-.085.75-.208.118-.061.233-.127.345-.198 0 0 .038-.026.113-.081.121-.09.196-.154.297-.26.075-.077.138-.168.189-.271.07-.147.14-.427.169-.66.021-.178.015-.275.012-.335-.003-.097-.083-.197-.17-.239l-.524-.235s-.783-.341-1.262-.559a.45.45 0 0 0-.159-.037.432.432 0 0 0-.34.115c-.004-.002-.065.05-.715.837a.314.314 0 0 1-.331.117 1.27 1.27 0 0 1-.172-.059l-.227-.097a5.4 5.4 0 0 1-1.418-.903c-.113-.099-.218-.207-.326-.311a5.67 5.67 0 0 1-.918-1.141l-.053-.086a.9.9 0 0 1-.092-.184c-.034-.133.055-.239.055-.239s.218-.24.32-.369c.099-.126.183-.248.237-.336.106-.17.14-.346.083-.482a73.614 73.614 0 0 0-.78-1.837c-.054-.12-.211-.207-.354-.224a2.702 2.702 0 0 0-.508-.01l.18-.007Z" fill="#1C3516"/></svg>